<svg width="131" height="41" viewBox="0 0 131 41" fill="none" xmlns="http://www.w3.org/2000/svg">
<path d="M42.5969 10.2526H47.255L52.1693 16.8394V10.2526H55.3163V19.8659H50.6582L45.7439 13.2662V19.8659H42.5969V10.2526Z" fill="#0B0F19"/>
<path d="M57.146 10.2526H66.9724V12.6226H60.2908V13.9744H66.7033V16.1291H60.2908V17.4938H66.9724V19.8638H57.146V10.2505V10.2526Z" fill="#0B0F19"/>
<path d="M68.0573 10.2526H71.4045L74.9799 17.737L78.5552 10.2526H81.9154L77.2164 19.8659H72.7326L68.0594 10.2526H68.0573Z" fill="#0B0F19"/>
<path d="M82.968 10.2526H92.7944V12.6226H86.1128V13.9744H92.5253V16.1291H86.1128V17.4938H92.7944V19.8638H82.968V10.2505V10.2526Z" fill="#0B0F19"/>
<path d="M93.9998 16.6909H97.2652C97.2652 17.3862 97.9885 17.8554 100.076 17.8554C102.164 17.8554 102.606 17.5605 102.606 17.0525C102.606 16.4627 102.244 16.3422 99.915 16.1958L99.4457 16.17C95.7649 15.9547 94.144 15.0463 94.144 12.9842C94.144 10.9221 96.2449 10.0244 99.5534 10.0244C103.329 10.0244 105.35 11.1761 105.471 13.3049H102.203C102.203 12.5688 101.334 12.3018 99.5254 12.3018C97.8249 12.3018 97.4094 12.5688 97.4094 12.9842C97.4094 13.4793 97.7711 13.6666 99.9258 13.8151L100.475 13.856C103.755 14.11 105.871 14.4587 105.871 16.9341C105.871 19.4096 103.755 20.1328 100.208 20.1328C96.3396 20.1328 94.116 19.2094 93.9955 16.6931L93.9998 16.6909Z" fill="#0B0F19"/>
<path d="M107.572 15.1647H109.365C109.365 16.9578 110.021 18.5378 112.845 18.5378C115.67 18.5378 116.313 16.9449 116.313 15.1647V11.8972H111.909V10.371H118.108V15.1647C118.108 18.2041 116.677 20.0639 112.848 20.0639C109.018 20.0639 107.574 18.2171 107.574 15.1647H107.572Z" fill="#0B0F19"/>
<path d="M120.035 10.3731H127.304C129.82 10.3731 131 11.3246 131 13.1047C131 14.364 130.318 15.2207 129.02 15.5543C130.171 15.5952 130.933 16.2496 130.933 17.3754V19.8659H129.153V17.6294C129.153 16.7727 128.725 16.411 127.868 16.411H121.83V19.8659H120.037V10.3731H120.035ZM126.93 14.9365C128.376 14.9365 129.151 14.4953 129.151 13.3437C129.151 12.192 128.374 11.8304 126.93 11.8304H121.828V14.9365H126.93Z" fill="#0B0F19"/>
<path d="M47.128 26.7368H43.3696V30.0431H47.4982L47.3841 30.732H42.5969V22.4748H47.3109V23.1636H43.3696V26.0372H47.128V26.7368Z" fill="#0B0F19"/>
<path d="M49.2913 24.7307C50.1502 26.1406 50.5742 26.7906 50.7701 27.1372H50.783C51.0284 26.7347 51.573 25.9038 52.3221 24.7307H53.1595L51.2071 27.6215L53.1853 30.732H52.2963C51.5579 29.5179 50.9875 28.6354 50.7486 28.2307H50.7378C50.5463 28.5859 50.0038 29.4727 49.2009 30.732H48.3506L50.3009 27.7356L48.4217 24.7307H49.2913Z" fill="#0B0F19"/>
<path d="M54.3584 27.8561C54.3477 29.2338 54.9482 30.1873 56.0697 30.1873C57.1309 30.1873 57.4559 29.421 57.5786 29.0895H58.3256C58.1641 29.7439 57.6238 30.8482 56.0223 30.8482C54.1604 30.8482 53.5835 29.3069 53.5835 27.7011C53.5835 26.2331 54.2981 24.6101 56.074 24.6101C57.8499 24.6101 58.4289 26.0889 58.4289 27.4127C58.4289 27.4278 58.4289 27.8389 58.4246 27.8561H54.3584ZM57.6733 27.2534C57.6389 26.1018 57.1783 25.2623 56.0503 25.2623C54.7523 25.2623 54.4467 26.4699 54.3821 27.2534H57.6712H57.6733Z" fill="#0B0F19"/>
<path d="M64.2257 28.885C63.9588 30.0474 63.2226 30.8482 61.8923 30.8482C60.2607 30.8482 59.4169 29.7375 59.4169 27.7119C59.4169 26.048 60.2198 24.6101 61.9397 24.6101C63.3991 24.6101 64.1138 25.5959 64.2171 26.6485H63.4443C63.3066 25.9145 62.8804 25.2645 61.9225 25.2645C60.7321 25.2645 60.2026 26.2934 60.2026 27.7097C60.2026 29.2983 60.8075 30.1938 61.916 30.1938C62.805 30.1938 63.2162 29.6535 63.4551 28.8829H64.2257V28.885Z" fill="#0B0F19"/>
<path d="M69.8589 29.0616C69.8589 29.7698 69.8718 30.4478 69.8826 30.7298H69.1572C69.1206 30.5684 69.1098 30.1594 69.1077 29.688C68.873 30.3424 68.2359 30.8374 67.306 30.8374C66.4665 30.8374 65.4763 30.5016 65.4763 28.7861V24.7307H66.2276V28.6203C66.2276 29.4512 66.4837 30.1572 67.4933 30.1572C68.4253 30.1572 69.0862 29.5158 69.0862 28.0886V24.7307H69.8589V29.0637V29.0616Z" fill="#0B0F19"/>
<path d="M70.8814 24.7306H71.8888V22.944H72.64V24.7306H73.9036V25.3786H72.64V29.3888C72.64 29.9248 72.7757 30.1508 73.2966 30.1508C73.4688 30.1508 73.684 30.1314 73.8024 30.1077V30.7104C73.5979 30.7879 73.2923 30.8095 73.0856 30.8095C72.3215 30.8095 71.8888 30.5275 71.8888 29.576V25.3764H70.8814V24.7285V24.7306Z" fill="#0B0F19"/>
<path d="M74.9863 22.0399H75.7397V23.2475H74.9863V22.0399ZM74.9863 24.7306H75.7397V30.732H74.9863V24.7306Z" fill="#0B0F19"/>
<path d="M77.5844 24.7307C78.4842 27.4579 79.0611 29.2295 79.2483 30.0173H79.2613C79.3775 29.3952 80.6152 25.794 80.9768 24.7307H81.7345L79.6552 30.732H78.7812L76.7815 24.7307H77.5844Z" fill="#0B0F19"/>
<path d="M83.1122 27.8561C83.1014 29.2338 83.702 30.1873 84.8235 30.1873C85.8847 30.1873 86.2097 29.421 86.3324 29.0895H87.0794C86.9179 29.7439 86.3776 30.8482 84.7761 30.8482C82.9142 30.8482 82.3373 29.3069 82.3373 27.7011C82.3373 26.2331 83.0519 24.6101 84.8278 24.6101C86.6036 24.6101 87.1827 26.0889 87.1827 27.4127C87.1827 27.4278 87.1827 27.8389 87.1784 27.8561H83.1122ZM86.425 27.2534C86.3905 26.1018 85.9299 25.2623 84.8019 25.2623C83.504 25.2623 83.1983 26.4699 83.1337 27.2534H86.4228H86.425Z" fill="#0B0F19"/>
<path d="M91.8214 28.4373C91.9979 29.6255 92.8094 30.1529 93.8254 30.1529C94.8414 30.1529 95.6056 29.6105 95.6056 28.5686C95.6056 27.5957 95.1815 27.1781 93.6403 26.6873C91.9785 26.1621 91.3156 25.6283 91.3156 24.4487C91.3156 23.2691 92.2196 22.365 93.7415 22.365C95.4442 22.365 96.1717 23.4176 96.2557 24.5262H95.47C95.3344 23.5963 94.7833 23.0366 93.7092 23.0366C92.6351 23.0366 92.1357 23.5575 92.1357 24.3819C92.1357 25.2064 92.5705 25.568 93.9524 25.9899C95.9608 26.6077 96.4322 27.3654 96.4322 28.4847C96.4322 29.8688 95.4614 30.8159 93.7932 30.8159C92.1249 30.8159 91.1606 29.8925 91.0357 28.4352H91.8236L91.8214 28.4373Z" fill="#0B0F19"/>
<path d="M98.2446 27.8561C98.2339 29.2338 98.8344 30.1873 99.9559 30.1873C101.017 30.1873 101.342 29.421 101.465 29.0895H102.212C102.05 29.7439 101.51 30.8482 99.9086 30.8482C98.0466 30.8482 97.4697 29.3069 97.4697 27.7011C97.4697 26.2331 98.1844 24.6101 99.9602 24.6101C101.736 24.6101 102.315 26.0889 102.315 27.4127C102.315 27.4278 102.315 27.8389 102.311 27.8561H98.2446ZM101.56 27.2534C101.525 26.1018 101.064 25.2623 99.9365 25.2623C98.6386 25.2623 98.3329 26.4699 98.2683 27.2534H101.557H101.56Z" fill="#0B0F19"/>
<path d="M103.68 26.7691C103.68 25.8241 103.669 24.9825 103.656 24.7306H104.403C104.418 25.0234 104.42 25.4065 104.42 26.0114C104.732 25.1762 105.445 24.6359 106.409 24.6165V25.4216C105.017 25.4969 104.435 26.4333 104.435 27.6947V30.7319H103.682V26.7691H103.68Z" fill="#0B0F19"/>
<path d="M107.886 24.7307C108.786 27.4579 109.363 29.2295 109.55 30.0173H109.563C109.679 29.3952 110.917 25.794 111.278 24.7307H112.036L109.957 30.732H109.083L107.083 24.7307H107.886Z" fill="#0B0F19"/>
<path d="M113.112 22.0399H113.866V23.2475H113.112V22.0399ZM113.112 24.7306H113.866V30.732H113.112V24.7306Z" fill="#0B0F19"/>
<path d="M120.061 28.885C119.794 30.0474 119.058 30.8482 117.727 30.8482C116.096 30.8482 115.252 29.7375 115.252 27.7119C115.252 26.048 116.055 24.6101 117.775 24.6101C119.234 24.6101 119.949 25.5959 120.052 26.6485H119.279C119.142 25.9145 118.715 25.2645 117.758 25.2645C116.567 25.2645 116.038 26.2934 116.038 27.7097C116.038 29.2983 116.643 30.1938 117.751 30.1938C118.64 30.1938 119.051 29.6535 119.29 28.8829H120.061V28.885Z" fill="#0B0F19"/>
<path d="M121.763 27.8561C121.753 29.2338 122.353 30.1873 123.475 30.1873C124.536 30.1873 124.861 29.421 124.984 29.0895H125.731C125.569 29.7439 125.029 30.8482 123.427 30.8482C121.565 30.8482 120.988 29.3069 120.988 27.7011C120.988 26.2331 121.703 24.6101 123.479 24.6101C125.255 24.6101 125.834 26.0889 125.834 27.4127C125.834 27.4278 125.834 27.8389 125.83 27.8561H121.763ZM125.076 27.2534C125.042 26.1018 124.581 25.2623 123.453 25.2623C122.155 25.2623 121.85 26.4699 121.785 27.2534H125.074H125.076Z" fill="#0B0F19"/>
<path d="M127.429 29.0379C127.558 29.7977 128.124 30.2132 128.899 30.2132C129.833 30.2132 130.171 29.6858 130.171 29.1261C130.171 28.5256 129.775 28.1941 128.716 27.9121C127.304 27.5354 126.914 27.0102 126.914 26.2267C126.914 25.4431 127.481 24.6079 128.824 24.6079C130.167 24.6079 130.74 25.4044 130.821 26.2955H130.074C129.958 25.7466 129.68 25.2322 128.789 25.2322C128.017 25.2322 127.679 25.6175 127.679 26.1707C127.679 26.6701 127.898 26.9413 128.968 27.2276C130.455 27.628 130.938 28.1209 130.938 29.0702C130.938 30.14 130.111 30.8374 128.871 30.8374C127.717 30.8374 126.783 30.2756 126.673 29.0379H127.429Z" fill="#0B0F19"/>
<path d="M35.4891 10.244V30.7363L17.7456 40.9824L14.1939 38.9311V10.752L7.09696 14.8483V34.8347L0 30.7363V10.244L17.7456 0L21.2952 2.04923V30.2283L28.3922 26.1341V6.14769L35.4891 10.244Z" fill="#0B0F19"/>
</svg>
