<svg width="253" height="80" viewBox="0 0 253 80" fill="none" xmlns="http://www.w3.org/2000/svg">
<path d="M82.2672 20.5088H91.2634L100.754 33.2299V20.5088H106.832V39.0749H97.836L88.345 26.3289V39.0749H82.2672V20.5088Z" fill="#E9E8EE"/>
<path d="M110.366 20.5086H129.344V25.0856H116.44V27.6964H128.824V31.8578H116.44V34.4934H129.344V39.0705H110.366V20.5044V20.5086Z" fill="#E9E8EE"/>
<path d="M131.439 20.5088H137.903L144.808 34.9634L151.714 20.5088H158.203L149.128 39.0749H140.468L131.443 20.5088H131.439Z" fill="#E9E8EE"/>
<path d="M160.236 20.5086H179.214V25.0856H166.309V27.6964H178.694V31.8578H166.309V34.4934H179.214V39.0705H160.236V20.5044V20.5086Z" fill="#E9E8EE"/>
<path d="M181.542 32.9428H187.848C187.848 34.2856 189.245 35.1918 193.277 35.1918C197.31 35.1918 198.162 34.6223 198.162 33.6412C198.162 32.5021 197.464 32.2693 192.966 31.9866L192.059 31.9367C184.95 31.521 181.82 29.7667 181.82 25.784C181.82 21.8014 185.878 20.0679 192.267 20.0679C199.559 20.0679 203.463 22.292 203.695 26.4035H197.385C197.385 24.9817 195.705 24.4662 192.213 24.4662C188.929 24.4662 188.127 24.9817 188.127 25.784C188.127 26.7402 188.825 27.1019 192.986 27.3887L194.046 27.4677C200.382 27.9583 204.469 28.6317 204.469 33.4125C204.469 38.1933 200.382 39.5902 193.531 39.5902C186.06 39.5902 181.766 37.8067 181.533 32.9469L181.542 32.9428Z" fill="#E9E8EE"/>
<path d="M207.753 29.9954H211.216C211.216 33.4584 212.484 36.5098 217.938 36.5098C223.392 36.5098 224.635 33.4334 224.635 29.9954V23.6848H216.13V20.7373H228.102V29.9954C228.102 35.8654 225.338 39.4573 217.942 39.4573C210.546 39.4573 207.757 35.8904 207.757 29.9954H207.753Z" fill="#E9E8EE"/>
<path d="M231.823 20.7417H245.862C250.722 20.7417 253 22.5792 253 26.0172C253 28.4492 251.682 30.1038 249.175 30.7481C251.399 30.8271 252.871 32.0909 252.871 34.2651V39.075H249.433V34.7557C249.433 33.1011 248.606 32.4027 246.951 32.4027H235.29V39.075H231.827V20.7417H231.823ZM245.139 29.555C247.932 29.555 249.429 28.7028 249.429 26.4787C249.429 24.2545 247.928 23.5561 245.139 23.5561H235.286V29.555H245.139Z" fill="#E9E8EE"/>
<path d="M91.0181 52.3446H83.7596V58.7301H91.7332L91.5128 60.0604H82.2672V44.1133H91.3715V45.4436H83.7596V50.9935H91.0181V52.3446Z" fill="#E9E8EE"/>
<path d="M95.1961 48.4702C96.8549 51.1932 97.6738 52.4487 98.0521 53.118H98.0771C98.551 52.3406 99.6028 50.7359 101.049 48.4702H102.667L98.8961 54.0534L102.717 60.0605H101C99.5737 57.7159 98.472 56.0114 98.0106 55.2298H97.9898C97.6198 55.9158 96.5722 57.6286 95.0215 60.0605H93.3794L97.1459 54.2737L93.5166 48.4702H95.1961Z" fill="#E9E8EE"/>
<path d="M104.982 54.5064C104.961 57.167 106.121 59.0087 108.287 59.0087C110.337 59.0087 110.964 57.5287 111.201 56.8885H112.644C112.332 58.1523 111.289 60.2849 108.196 60.2849C104.6 60.2849 103.486 57.3084 103.486 54.2071C103.486 51.3718 104.866 48.2373 108.296 48.2373C111.725 48.2373 112.844 51.0933 112.844 53.65C112.844 53.6791 112.844 54.4731 112.835 54.5064H104.982ZM111.384 53.3424C111.318 51.1183 110.428 49.4969 108.25 49.4969C105.743 49.4969 105.153 51.8291 105.028 53.3424H111.38H111.384Z" fill="#E9E8EE"/>
<path d="M124.039 56.4935C123.523 58.7384 122.102 60.2849 119.532 60.2849C116.381 60.2849 114.752 58.1398 114.752 54.2279C114.752 51.0143 116.302 48.2373 119.624 48.2373C122.443 48.2373 123.823 50.1413 124.022 52.1742H122.53C122.264 50.7566 121.441 49.5011 119.591 49.5011C117.292 49.5011 116.269 51.4882 116.269 54.2237C116.269 57.2917 117.437 59.0211 119.578 59.0211C121.295 59.0211 122.089 57.9777 122.551 56.4894H124.039V56.4935Z" fill="#E9E8EE"/>
<path d="M134.918 56.8345C134.918 58.2023 134.943 59.5118 134.964 60.0564H133.563C133.492 59.7446 133.472 58.9547 133.467 58.0443C133.014 59.3081 131.784 60.2642 129.988 60.2642C128.367 60.2642 126.454 59.6157 126.454 56.3024V48.4702H127.905V55.9823C127.905 57.587 128.4 58.9506 130.35 58.9506C132.15 58.9506 133.426 57.7117 133.426 54.9555V48.4702H134.918V56.8387V56.8345Z" fill="#E9E8EE"/>
<path d="M136.893 48.4705H138.839V45.02H140.289V48.4705H142.73V49.7218H140.289V57.4667C140.289 58.5019 140.551 58.9384 141.557 58.9384C141.89 58.9384 142.306 58.901 142.534 58.8552V60.0193C142.139 60.1689 141.549 60.2105 141.15 60.2105C139.674 60.2105 138.839 59.6659 138.839 57.8284V49.7177H136.893V48.4664V48.4705Z" fill="#E9E8EE"/>
<path d="M144.821 43.2739H146.276V45.6061H144.821V43.2739ZM144.821 48.4704H146.276V60.0608H144.821V48.4704Z" fill="#E9E8EE"/>
<path d="M149.839 48.4702C151.576 53.7374 152.69 57.1588 153.052 58.6803H153.077C153.302 57.4789 155.692 50.5239 156.39 48.4702H157.854L153.838 60.0605H152.15L148.288 48.4702H149.839Z" fill="#E9E8EE"/>
<path d="M160.514 54.5064C160.494 57.167 161.653 59.0087 163.819 59.0087C165.869 59.0087 166.497 57.5287 166.734 56.8885H168.176C167.864 58.1523 166.821 60.2849 163.728 60.2849C160.132 60.2849 159.018 57.3084 159.018 54.2071C159.018 51.3718 160.398 48.2373 163.828 48.2373C167.257 48.2373 168.376 51.0933 168.376 53.65C168.376 53.6791 168.376 54.4731 168.367 54.5064H160.514ZM166.912 53.3424C166.846 51.1183 165.956 49.4969 163.778 49.4969C161.271 49.4969 160.681 51.8291 160.556 53.3424H166.908H166.912Z" fill="#E9E8EE"/>
<path d="M177.334 55.6294C177.675 57.9242 179.243 58.9427 181.205 58.9427C183.167 58.9427 184.643 57.8951 184.643 55.883C184.643 54.0039 183.824 53.1974 180.847 52.2495C177.638 51.2352 176.358 50.2042 176.358 47.926C176.358 45.6479 178.104 43.9019 181.043 43.9019C184.331 43.9019 185.736 45.9347 185.898 48.0757H184.381C184.119 46.2798 183.055 45.1989 180.98 45.1989C178.906 45.1989 177.941 46.205 177.941 47.7972C177.941 49.3894 178.781 50.0878 181.45 50.9026C185.329 52.0957 186.239 53.5591 186.239 55.7208C186.239 58.3939 184.364 60.2231 181.142 60.2231C177.921 60.2231 176.058 58.4396 175.817 55.6252H177.339L177.334 55.6294Z" fill="#E9E8EE"/>
<path d="M189.74 54.5064C189.719 57.167 190.879 59.0087 193.045 59.0087C195.094 59.0087 195.722 57.5287 195.959 56.8885H197.401C197.09 58.1523 196.046 60.2849 192.953 60.2849C189.357 60.2849 188.243 57.3084 188.243 54.2071C188.243 51.3718 189.623 48.2373 193.053 48.2373C196.483 48.2373 197.601 51.0933 197.601 53.65C197.601 53.6791 197.601 54.4731 197.593 54.5064H189.74ZM196.142 53.3424C196.075 51.1183 195.186 49.4969 193.007 49.4969C190.5 49.4969 189.91 51.8291 189.785 53.3424H196.138H196.142Z" fill="#E9E8EE"/>
<path d="M200.237 52.4072C200.237 50.5822 200.216 48.9567 200.191 48.4703H201.633C201.662 49.0357 201.667 49.7757 201.667 50.9439C202.269 49.3309 203.645 48.2874 205.508 48.25V49.8048C202.818 49.9503 201.696 51.7587 201.696 54.1948V60.0607H200.241V52.4072H200.237Z" fill="#E9E8EE"/>
<path d="M208.36 48.4702C210.098 53.7374 211.212 57.1588 211.573 58.6803H211.598C211.823 57.4789 214.213 50.5239 214.912 48.4702H216.375L212.359 60.0605H210.671L206.809 48.4702H208.36Z" fill="#E9E8EE"/>
<path d="M218.453 43.2739H219.909V45.6061H218.453V43.2739ZM218.453 48.4704H219.909V60.0608H218.453V48.4704Z" fill="#E9E8EE"/>
<path d="M231.873 56.4935C231.357 58.7384 229.936 60.2849 227.367 60.2849C224.215 60.2849 222.586 58.1398 222.586 54.2279C222.586 51.0143 224.136 48.2373 227.458 48.2373C230.277 48.2373 231.657 50.1413 231.856 52.1742H230.364C230.098 50.7566 229.275 49.5011 227.425 49.5011C225.126 49.5011 224.103 51.4882 224.103 54.2237C224.103 57.2917 225.271 59.0211 227.412 59.0211C229.129 59.0211 229.923 57.9777 230.385 56.4894H231.873V56.4935Z" fill="#E9E8EE"/>
<path d="M235.161 54.5064C235.141 57.167 236.3 59.0087 238.466 59.0087C240.516 59.0087 241.144 57.5287 241.381 56.8885H242.823C242.511 58.1523 241.468 60.2849 238.375 60.2849C234.779 60.2849 233.665 57.3084 233.665 54.2071C233.665 51.3718 235.045 48.2373 238.475 48.2373C241.904 48.2373 243.023 51.0933 243.023 53.65C243.023 53.6791 243.023 54.4731 243.014 54.5064H235.161ZM241.559 53.3424C241.493 51.1183 240.603 49.4969 238.425 49.4969C235.918 49.4969 235.328 51.8291 235.203 53.3424H241.555H241.559Z" fill="#E9E8EE"/>
<path d="M246.103 56.789C246.353 58.2564 247.446 59.0588 248.943 59.0588C250.747 59.0588 251.399 58.0403 251.399 56.9594C251.399 55.7995 250.634 55.1593 248.589 54.6147C245.862 53.8872 245.11 52.8729 245.11 51.3596C245.11 49.8464 246.203 48.2334 248.797 48.2334C251.391 48.2334 252.497 49.7716 252.655 51.4927H251.212C250.988 50.4326 250.452 49.439 248.731 49.439C247.238 49.439 246.585 50.1831 246.585 51.2515C246.585 52.216 247.009 52.7398 249.076 53.2927C251.948 54.066 252.879 55.018 252.879 56.8513C252.879 58.9174 251.283 60.2644 248.888 60.2644C246.66 60.2644 244.856 59.1794 244.644 56.789H246.103Z" fill="#E9E8EE"/>
<path d="M68.5401 20.4922V60.0689L34.2721 79.8573L27.4127 75.8955V21.4733L13.7064 29.3845V67.9843L0 60.0689V20.4922L34.2721 0.708008L41.1274 4.66568V59.0878L54.8337 51.1808V12.581L68.5401 20.4922Z" fill="#E9E8EE"/>
</svg>
